<mxfile host="app.diagrams.net" agent="Mozilla/5.0 (Windows NT 10.0; Win64; x64; rv:133.0) Gecko/20100101 Firefox/133.0" version="25.0.3">
  <diagram name="Страница — 1" id="Qoo-nAjEjCLvAAJSuAsn">
    <mxGraphModel dx="1400" dy="755" grid="1" gridSize="10" guides="1" tooltips="1" connect="1" arrows="1" fold="1" page="1" pageScale="1" pageWidth="827" pageHeight="1169" math="0" shadow="0">
      <root>
        <mxCell id="0" />
        <mxCell id="1" parent="0" />
        <mxCell id="2rKqUg3R2liw_wEwyOho-11" style="edgeStyle=orthogonalEdgeStyle;rounded=0;orthogonalLoop=1;jettySize=auto;html=1;exitX=0.5;exitY=1;exitDx=0;exitDy=0;entryX=0.5;entryY=0;entryDx=0;entryDy=0;" parent="1" source="2rKqUg3R2liw_wEwyOho-1" target="2rKqUg3R2liw_wEwyOho-2" edge="1">
          <mxGeometry relative="1" as="geometry" />
        </mxCell>
        <mxCell id="2rKqUg3R2liw_wEwyOho-1" value="&lt;font style=&quot;font-size: 21px;&quot;&gt;Start&lt;/font&gt;" style="rounded=1;whiteSpace=wrap;html=1;glass=0;shadow=0;arcSize=50;" parent="1" vertex="1">
          <mxGeometry x="370" y="10" width="130" height="60" as="geometry" />
        </mxCell>
        <mxCell id="pNsMMBrsi4eSPWFV7aQ5-2" style="edgeStyle=orthogonalEdgeStyle;rounded=0;orthogonalLoop=1;jettySize=auto;html=1;exitX=0.5;exitY=1;exitDx=0;exitDy=0;entryX=0.5;entryY=0;entryDx=0;entryDy=0;" parent="1" source="2rKqUg3R2liw_wEwyOho-2" target="2rKqUg3R2liw_wEwyOho-15" edge="1">
          <mxGeometry relative="1" as="geometry" />
        </mxCell>
        <mxCell id="2rKqUg3R2liw_wEwyOho-2" value="&lt;div&gt;ChatID,&lt;/div&gt;&lt;div&gt;UserID,&lt;/div&gt;&lt;div&gt;Message&lt;br&gt;&lt;/div&gt;" style="shape=parallelogram;perimeter=parallelogramPerimeter;whiteSpace=wrap;html=1;fixedSize=1;size=12.5;" parent="1" vertex="1">
          <mxGeometry x="367.5" y="90" width="135" height="60" as="geometry" />
        </mxCell>
        <mxCell id="2rKqUg3R2liw_wEwyOho-13" style="edgeStyle=orthogonalEdgeStyle;rounded=0;orthogonalLoop=1;jettySize=auto;html=1;exitX=0.5;exitY=1;exitDx=0;exitDy=0;entryX=0.5;entryY=0;entryDx=0;entryDy=0;" parent="1" edge="1">
          <mxGeometry relative="1" as="geometry">
            <mxPoint x="435" y="230" as="sourcePoint" />
          </mxGeometry>
        </mxCell>
        <mxCell id="2rKqUg3R2liw_wEwyOho-14" style="edgeStyle=orthogonalEdgeStyle;rounded=0;orthogonalLoop=1;jettySize=auto;html=1;entryX=0.5;entryY=0;entryDx=0;entryDy=0;" parent="1" source="2rKqUg3R2liw_wEwyOho-15" target="2rKqUg3R2liw_wEwyOho-17" edge="1">
          <mxGeometry relative="1" as="geometry" />
        </mxCell>
        <mxCell id="2rKqUg3R2liw_wEwyOho-15" value="Database record creation" style="whiteSpace=wrap;html=1;" parent="1" vertex="1">
          <mxGeometry x="375" y="170" width="120" height="60" as="geometry" />
        </mxCell>
        <mxCell id="2rKqUg3R2liw_wEwyOho-16" style="edgeStyle=orthogonalEdgeStyle;rounded=0;orthogonalLoop=1;jettySize=auto;html=1;exitX=0.5;exitY=1;exitDx=0;exitDy=0;entryX=0.5;entryY=0;entryDx=0;entryDy=0;" parent="1" source="2rKqUg3R2liw_wEwyOho-17" target="2rKqUg3R2liw_wEwyOho-22" edge="1">
          <mxGeometry relative="1" as="geometry" />
        </mxCell>
        <mxCell id="2rKqUg3R2liw_wEwyOho-17" value="&lt;div&gt;Request result&lt;/div&gt;&lt;div&gt;status&lt;br&gt;&lt;/div&gt;" style="shape=parallelogram;perimeter=parallelogramPerimeter;whiteSpace=wrap;html=1;fixedSize=1;size=15;" parent="1" vertex="1">
          <mxGeometry x="375" y="250" width="120" height="60" as="geometry" />
        </mxCell>
        <mxCell id="2rKqUg3R2liw_wEwyOho-18" style="edgeStyle=orthogonalEdgeStyle;rounded=0;orthogonalLoop=1;jettySize=auto;html=1;entryX=0.5;entryY=1;entryDx=0;entryDy=0;" parent="1" source="2rKqUg3R2liw_wEwyOho-22" target="Q6NXC5g-iLnJKcNGpJNy-1" edge="1">
          <mxGeometry relative="1" as="geometry">
            <mxPoint x="680" y="229.9999999999999" as="targetPoint" />
            <Array as="points">
              <mxPoint x="605" y="390" />
            </Array>
          </mxGeometry>
        </mxCell>
        <mxCell id="2rKqUg3R2liw_wEwyOho-19" value="&lt;div&gt;No&lt;/div&gt;" style="edgeLabel;html=1;align=center;verticalAlign=middle;resizable=0;points=[];" parent="2rKqUg3R2liw_wEwyOho-18" vertex="1" connectable="0">
          <mxGeometry x="-0.7344" relative="1" as="geometry">
            <mxPoint as="offset" />
          </mxGeometry>
        </mxCell>
        <mxCell id="2rKqUg3R2liw_wEwyOho-20" value="" style="edgeStyle=orthogonalEdgeStyle;rounded=0;orthogonalLoop=1;jettySize=auto;html=1;entryX=0.5;entryY=0;entryDx=0;entryDy=0;exitX=0;exitY=0.5;exitDx=0;exitDy=0;" parent="1" source="2rKqUg3R2liw_wEwyOho-22" target="2rKqUg3R2liw_wEwyOho-26" edge="1">
          <mxGeometry relative="1" as="geometry">
            <mxPoint x="480.00000000000045" y="610.0000000000002" as="sourcePoint" />
            <mxPoint x="435" y="690" as="targetPoint" />
            <Array as="points">
              <mxPoint x="435" y="390" />
            </Array>
          </mxGeometry>
        </mxCell>
        <mxCell id="2rKqUg3R2liw_wEwyOho-21" value="Yes" style="edgeLabel;html=1;align=center;verticalAlign=middle;resizable=0;points=[];" parent="2rKqUg3R2liw_wEwyOho-20" vertex="1" connectable="0">
          <mxGeometry x="-0.46" y="3" relative="1" as="geometry">
            <mxPoint as="offset" />
          </mxGeometry>
        </mxCell>
        <mxCell id="2rKqUg3R2liw_wEwyOho-22" value="result status &lt;br&gt;is true?" style="rhombus;whiteSpace=wrap;html=1;" parent="1" vertex="1">
          <mxGeometry x="460" y="350" width="125.62" height="80" as="geometry" />
        </mxCell>
        <mxCell id="2rKqUg3R2liw_wEwyOho-23" style="edgeStyle=orthogonalEdgeStyle;rounded=0;orthogonalLoop=1;jettySize=auto;html=1;exitX=0.5;exitY=0;exitDx=0;exitDy=0;" parent="1" source="Q6NXC5g-iLnJKcNGpJNy-1" edge="1">
          <mxGeometry relative="1" as="geometry">
            <mxPoint x="440" y="80" as="targetPoint" />
            <Array as="points">
              <mxPoint x="605" y="80" />
            </Array>
            <mxPoint x="680" y="169.9999999999999" as="sourcePoint" />
          </mxGeometry>
        </mxCell>
        <mxCell id="2rKqUg3R2liw_wEwyOho-25" style="edgeStyle=orthogonalEdgeStyle;rounded=0;orthogonalLoop=1;jettySize=auto;html=1;exitX=0.5;exitY=1;exitDx=0;exitDy=0;entryX=0.5;entryY=0;entryDx=0;entryDy=0;" parent="1" source="2rKqUg3R2liw_wEwyOho-26" edge="1" target="pNsMMBrsi4eSPWFV7aQ5-1">
          <mxGeometry relative="1" as="geometry">
            <mxPoint x="435" y="697.5" as="targetPoint" />
          </mxGeometry>
        </mxCell>
        <mxCell id="2rKqUg3R2liw_wEwyOho-26" value="Send code 1" style="whiteSpace=wrap;html=1;" parent="1" vertex="1">
          <mxGeometry x="375" y="420" width="120" height="60" as="geometry" />
        </mxCell>
        <mxCell id="2rKqUg3R2liw_wEwyOho-27" value="End" style="rounded=1;whiteSpace=wrap;html=1;glass=0;shadow=0;arcSize=50;" parent="1" vertex="1">
          <mxGeometry x="370" y="580" width="130" height="60" as="geometry" />
        </mxCell>
        <mxCell id="2rKqUg3R2liw_wEwyOho-28" value="By code 1 I mean sending &quot;1&quot; message to server by websocket to invoke update on reciever client" style="text;html=1;align=center;verticalAlign=middle;whiteSpace=wrap;rounded=0;" parent="1" vertex="1">
          <mxGeometry x="280" y="325" width="150" height="95" as="geometry" />
        </mxCell>
        <mxCell id="2rKqUg3R2liw_wEwyOho-30" style="edgeStyle=orthogonalEdgeStyle;rounded=0;orthogonalLoop=1;jettySize=auto;html=1;exitX=0.5;exitY=1;exitDx=0;exitDy=0;entryX=0.5;entryY=0;entryDx=0;entryDy=0;" parent="1" source="pNsMMBrsi4eSPWFV7aQ5-1" target="2rKqUg3R2liw_wEwyOho-27" edge="1">
          <mxGeometry relative="1" as="geometry">
            <mxPoint x="435" y="787.5" as="sourcePoint" />
          </mxGeometry>
        </mxCell>
        <mxCell id="pNsMMBrsi4eSPWFV7aQ5-1" value="Update on Reciever and User clients with new messages" style="shape=parallelogram;perimeter=parallelogramPerimeter;whiteSpace=wrap;html=1;fixedSize=1;" parent="1" vertex="1">
          <mxGeometry x="340" y="500" width="190" height="60" as="geometry" />
        </mxCell>
        <mxCell id="Q6NXC5g-iLnJKcNGpJNy-1" value="Warning (&quot;The error occurred, please try again&quot;)" style="shape=parallelogram;perimeter=parallelogramPerimeter;whiteSpace=wrap;html=1;fixedSize=1;" vertex="1" parent="1">
          <mxGeometry x="545" y="170" width="120" height="60" as="geometry" />
        </mxCell>
      </root>
    </mxGraphModel>
  </diagram>
</mxfile>
